<svg xmlns="http://www.w3.org/2000/svg" viewBox="-0.36 -1.2 34.31 5.56" role="img" aria-label="TEXT2CAD"><title>TEXT2CAD</title><defs><linearGradient id="relief-text2cad-front" gradientUnits="userSpaceOnUse" x1="0" y1="0" x2="2" y2="4"><stop stop-color="#39b0e9"/><stop offset=".5" stop-color="#249ddd"/><stop offset="1" stop-color="#1785bf"/></linearGradient><linearGradient id="relief-text2cad-top" gradientUnits="userSpaceOnUse" x1="0" y1="-1" x2="3" y2="4"><stop stop-color="#94d9fa"/><stop offset="1" stop-color="#51ade1"/></linearGradient><linearGradient id="relief-text2cad-side" gradientUnits="userSpaceOnUse" x1="0" y1="0" x2="4" y2="3"><stop stop-color="#258cc5"/><stop offset="1" stop-color="#0b5887"/></linearGradient><filter id="relief-text2cad-shadow" x="-30%" y="-40%" width="170%" height="200%" color-interpolation-filters="sRGB"><feDropShadow dx=".035" dy=".10" stdDeviation=".075" flood-color="#082f4a" flood-opacity=".22"/></filter><clipPath id="relief-text2cad-highlight-0"><path d="M0,0L0.84,-0.84L3.84,-0.84L3,0Z" clip-rule="evenodd"/></clipPath><clipPath id="relief-text2cad-highlight-1"><path d="M0,0L0.25,0L0.5,0L0.75,0L1,0L1.25,0L1.5,0L1.75,0L2,0L2.25,0L2.5,0L2.75,0L3,0L3,0.5L3,1L3,1.5L2.75,1.5L2.5,1.5L2.25,1.5L2.25,2L2.25,2.5L2.25,3L2.25,3.5L2.25,4L2,4L1.75,4L1.5,4L1.25,4L1,4L0.75,4L0.75,3.5L0.75,3L0.75,2.5L0.75,2L0.75,1.5L0.5,1.5L0.25,1.5L0,1.5L0,1L0,0.5L0,0Z" clip-rule="evenodd"/></clipPath><clipPath id="relief-text2cad-highlight-2"><path d="M1.5,3L2.34,2.16L3.84,2.16L3,3Z" clip-rule="evenodd"/></clipPath><clipPath id="relief-text2cad-highlight-3"><path d="M1.5,1.5L2.34,0.66L3.84,0.66L3,1.5Z" clip-rule="evenodd"/></clipPath><clipPath id="relief-text2cad-highlight-4"><path d="M0,0L0.84,-0.84L3.84,-0.84L3,0Z" clip-rule="evenodd"/></clipPath><clipPath id="relief-text2cad-highlight-5"><path d="M0,0L0.5,0L1,0L1.5,0L2,0L2.5,0L3,0L3,0.5L3,1L2.5,1L2,1L1.5,1L1.5,1.5L2,1.5L2.5,1.5L3,1.5L3,2L3,2.5L2.5,2.5L2,2.5L1.5,2.5L1.5,3L2,3L2.5,3L3,3L3,3.5L3,4L2.5,4L2,4L1.5,4L1,4L0.5,4L0,4L0,3.5L0,3L0,2.5L0,2L0,1.5L0,1L0,0.5L0,0Z" clip-rule="evenodd"/></clipPath><clipPath id="relief-text2cad-highlight-6"><path d="M0,0L0.84,-0.84L1.84,-0.84L1,0Z" clip-rule="evenodd"/></clipPath><clipPath id="relief-text2cad-highlight-7"><path d="M1.25,0.75L2.09,-0.09L2.59,-0.09L1.75,0.75Z" clip-rule="evenodd"/></clipPath><clipPath id="relief-text2cad-highlight-8"><path d="M2,0L2.84,-0.84L3.84,-0.84L3,0Z" clip-rule="evenodd"/></clipPath><clipPath id="relief-text2cad-highlight-9"><path d="M0,0L1,0L1,0.5L1.25,0.75L1.75,0.75L2,0.5L2,0L3,0L3,1L2.5,1.5L2.5,2.5L3,3L3,4L2,4L2,3.5L1.75,3.25L1.25,3.25L1,3.5L1,4L0,4L0,3L0.5,2.5L0.5,1.5L0,1L0,0Z" clip-rule="evenodd"/></clipPath><clipPath id="relief-text2cad-highlight-10"><path d="M0,0L0.84,-0.84L3.84,-0.84L3,0Z" clip-rule="evenodd"/></clipPath><clipPath id="relief-text2cad-highlight-11"><path d="M0,0L0.25,0L0.5,0L0.75,0L1,0L1.25,0L1.5,0L1.75,0L2,0L2.25,0L2.5,0L2.75,0L3,0L3,0.5L3,1L3,1.5L2.75,1.5L2.5,1.5L2.25,1.5L2.25,2L2.25,2.5L2.25,3L2.25,3.5L2.25,4L2,4L1.75,4L1.5,4L1.25,4L1,4L0.75,4L0.75,3.5L0.75,3L0.75,2.5L0.75,2L0.75,1.5L0.5,1.5L0.25,1.5L0,1.5L0,1L0,0.5L0,0Z" clip-rule="evenodd"/></clipPath><clipPath id="relief-text2cad-highlight-12"><path d="M1.5,3L2.34,2.16L3.84,2.16L3,3Z" clip-rule="evenodd"/></clipPath><clipPath id="relief-text2cad-highlight-13"><path d="M0,1.5L0.84,0.66L2.34,0.66L1.5,1.5Z" clip-rule="evenodd"/></clipPath><clipPath id="relief-text2cad-highlight-14"><path d="M0,0L0.84,-0.84L3.34,-0.84L2.5,0Z" clip-rule="evenodd"/></clipPath><clipPath id="relief-text2cad-highlight-15"><path d="M0,0L2.5,0L3,0.5L3,2.5L1.5,2.5L1.5,3L3,3L3,4L0,4L0,1.5L1.5,1.5L1.5,1L0,1L0,0Z" clip-rule="evenodd"/></clipPath><clipPath id="relief-text2cad-highlight-16"><path d="M1.5,2.5L2.34,1.66L3.84,1.66L3,2.5Z" clip-rule="evenodd"/></clipPath><clipPath id="relief-text2cad-highlight-17"><path d="M0,0L0.84,-0.84L3.84,-0.84L3,0Z" clip-rule="evenodd"/></clipPath><clipPath id="relief-text2cad-highlight-18"><path d="M0,0L0.5,0L1,0L1.5,0L2,0L2.5,0L3,0L3,0.5L3,1L3,1.5L2.5,1.5L2,1.5L1.5,1.5L1.5,2L1.5,2.5L2,2.5L2.5,2.5L3,2.5L3,3L3,3.5L3,4L2.5,4L2,4L1.5,4L1,4L0.5,4L0,4L0,3.5L0,3L0,2.5L0,2L0,1.5L0,1L0,0.5L0,0Z" clip-rule="evenodd"/></clipPath><clipPath id="relief-text2cad-highlight-19"><path d="M1,2L1.84,1.16L2.84,1.16L2,2Z" clip-rule="evenodd"/></clipPath><clipPath id="relief-text2cad-highlight-20"><path d="M0.5,0L1.34,-0.84L3.34,-0.84L2.5,0Z" clip-rule="evenodd"/></clipPath><clipPath id="relief-text2cad-highlight-21"><path d="M0,0.5L0.5,0L2.5,0L3,0.5L3,4L2,4L2,3.5L1,3.5L1,4L0,4L0,0.5ZM1,1L1,2L2,2L2,1L1,1Z" clip-rule="evenodd"/></clipPath><clipPath id="relief-text2cad-highlight-22"><path d="M1,3L1.84,2.16L2.84,2.16L2,3Z" clip-rule="evenodd"/></clipPath><clipPath id="relief-text2cad-highlight-23"><path d="M0,0L0.84,-0.84L3.34,-0.84L2.5,0Z" clip-rule="evenodd"/></clipPath><clipPath id="relief-text2cad-highlight-24"><path d="M0,0L2.5,0L3,0.5L3,3.5L2.5,4L0,4L0,0ZM1,1L1,3L2,3L2,1L1,1Z" clip-rule="evenodd"/></clipPath></defs><g filter="url(#relief-text2cad-shadow)"><g transform="translate(0 0)"><path stroke="#123e59" stroke-width="0.038" stroke-linejoin="round" fill="url(#relief-text2cad-top)" d="M0,0L0.84,-0.84L3.84,-0.84L3,0Z"/><g clip-path="url(#relief-text2cad-highlight-0)"><path d="M0,0L0.84,-0.84L3.84,-0.84L3,0Z" fill="none" stroke="#d1f1ff" stroke-opacity=".6" stroke-width=".037" transform="translate(.042 .042)"/></g><path stroke="#123e59" stroke-width="0.038" stroke-linejoin="round" fill="url(#relief-text2cad-side)" d="M2.25,1.5L3.09,0.66L3.09,3.16L2.25,4Z"/><path stroke="#123e59" stroke-width="0.038" stroke-linejoin="round" fill="url(#relief-text2cad-side)" d="M3,0L3.84,-0.84L3.84,0.66L3,1.5Z"/><path stroke="#123e59" stroke-width="0.038" stroke-linejoin="round" fill="url(#relief-text2cad-front)" fill-rule="evenodd" d="M0,0L0.25,0L0.5,0L0.75,0L1,0L1.25,0L1.5,0L1.75,0L2,0L2.25,0L2.5,0L2.75,0L3,0L3,0.5L3,1L3,1.5L2.75,1.5L2.5,1.5L2.25,1.5L2.25,2L2.25,2.5L2.25,3L2.25,3.5L2.25,4L2,4L1.75,4L1.5,4L1.25,4L1,4L0.75,4L0.75,3.5L0.75,3L0.75,2.5L0.75,2L0.75,1.5L0.5,1.5L0.25,1.5L0,1.5L0,1L0,0.5L0,0Z"/><g clip-path="url(#relief-text2cad-highlight-1)"><path d="M0,0L0.25,0L0.5,0L0.75,0L1,0L1.25,0L1.5,0L1.75,0L2,0L2.25,0L2.5,0L2.75,0L3,0L3,0.5L3,1L3,1.5L2.75,1.5L2.5,1.5L2.25,1.5L2.25,2L2.25,2.5L2.25,3L2.25,3.5L2.25,4L2,4L1.75,4L1.5,4L1.25,4L1,4L0.75,4L0.75,3.5L0.75,3L0.75,2.5L0.75,2L0.75,1.5L0.5,1.5L0.25,1.5L0,1.5L0,1L0,0.5L0,0Z" fill="none" stroke="#d1f1ff" stroke-opacity=".38" stroke-width=".037" transform="translate(.042 .042)"/></g></g><g transform="translate(4.25 0)"><path stroke="#123e59" stroke-width="0.038" stroke-linejoin="round" fill="url(#relief-text2cad-top)" d="M1.5,3L2.34,2.16L3.84,2.16L3,3Z"/><g clip-path="url(#relief-text2cad-highlight-2)"><path d="M1.5,3L2.34,2.16L3.84,2.16L3,3Z" fill="none" stroke="#d1f1ff" stroke-opacity=".6" stroke-width=".037" transform="translate(.042 .042)"/></g><path stroke="#123e59" stroke-width="0.038" stroke-linejoin="round" fill="url(#relief-text2cad-top)" d="M1.5,1.5L2.34,0.66L3.84,0.66L3,1.5Z"/><g clip-path="url(#relief-text2cad-highlight-3)"><path d="M1.5,1.5L2.34,0.66L3.84,0.66L3,1.5Z" fill="none" stroke="#d1f1ff" stroke-opacity=".6" stroke-width=".037" transform="translate(.042 .042)"/></g><path stroke="#123e59" stroke-width="0.038" stroke-linejoin="round" fill="url(#relief-text2cad-top)" d="M0,0L0.84,-0.84L3.84,-0.84L3,0Z"/><g clip-path="url(#relief-text2cad-highlight-4)"><path d="M0,0L0.84,-0.84L3.84,-0.84L3,0Z" fill="none" stroke="#d1f1ff" stroke-opacity=".6" stroke-width=".037" transform="translate(.042 .042)"/></g><path stroke="#123e59" stroke-width="0.038" stroke-linejoin="round" fill="url(#relief-text2cad-side)" d="M1.5,1L2.34,0.16L2.34,0.66L1.5,1.5Z"/><path stroke="#123e59" stroke-width="0.038" stroke-linejoin="round" fill="url(#relief-text2cad-side)" d="M1.5,2.5L2.34,1.66L2.34,2.16L1.5,3Z"/><path stroke="#123e59" stroke-width="0.038" stroke-linejoin="round" fill="url(#relief-text2cad-side)" d="M3,0L3.84,-0.84L3.84,0.16L3,1Z"/><path stroke="#123e59" stroke-width="0.038" stroke-linejoin="round" fill="url(#relief-text2cad-side)" d="M3,1.5L3.84,0.66L3.84,1.66L3,2.5Z"/><path stroke="#123e59" stroke-width="0.038" stroke-linejoin="round" fill="url(#relief-text2cad-side)" d="M3,3L3.84,2.16L3.84,3.16L3,4Z"/><path stroke="#123e59" stroke-width="0.038" stroke-linejoin="round" fill="url(#relief-text2cad-front)" fill-rule="evenodd" d="M0,0L0.5,0L1,0L1.5,0L2,0L2.5,0L3,0L3,0.5L3,1L2.5,1L2,1L1.5,1L1.5,1.5L2,1.5L2.5,1.5L3,1.5L3,2L3,2.5L2.5,2.5L2,2.5L1.5,2.5L1.5,3L2,3L2.5,3L3,3L3,3.5L3,4L2.5,4L2,4L1.5,4L1,4L0.5,4L0,4L0,3.5L0,3L0,2.5L0,2L0,1.5L0,1L0,0.5L0,0Z"/><g clip-path="url(#relief-text2cad-highlight-5)"><path d="M0,0L0.5,0L1,0L1.5,0L2,0L2.5,0L3,0L3,0.5L3,1L2.5,1L2,1L1.5,1L1.5,1.5L2,1.5L2.5,1.5L3,1.5L3,2L3,2.5L2.5,2.5L2,2.5L1.5,2.5L1.5,3L2,3L2.5,3L3,3L3,3.5L3,4L2.5,4L2,4L1.5,4L1,4L0.5,4L0,4L0,3.5L0,3L0,2.5L0,2L0,1.5L0,1L0,0.5L0,0Z" fill="none" stroke="#d1f1ff" stroke-opacity=".38" stroke-width=".037" transform="translate(.042 .042)"/></g></g><g transform="translate(8.5 0)"><path stroke="#123e59" stroke-width="0.038" stroke-linejoin="round" fill="url(#relief-text2cad-side)" d="M1,3.5L1.84,2.66L1.84,3.16L1,4Z"/><path stroke="#123e59" stroke-width="0.038" stroke-linejoin="round" fill="url(#relief-text2cad-side)" d="M3,3L3.84,2.16L3.84,3.16L3,4Z"/><path stroke="#123e59" stroke-width="0.038" stroke-linejoin="round" fill="url(#relief-text2cad-side)" d="M2.5,2.5L3.34,1.66L3.84,2.16L3,3Z"/><path stroke="#123e59" stroke-width="0.038" stroke-linejoin="round" fill="url(#relief-text2cad-top)" d="M0,0L0.84,-0.84L1.84,-0.84L1,0Z"/><g clip-path="url(#relief-text2cad-highlight-6)"><path d="M0,0L0.84,-0.84L1.84,-0.84L1,0Z" fill="none" stroke="#d1f1ff" stroke-opacity=".6" stroke-width=".037" transform="translate(.042 .042)"/></g><path stroke="#123e59" stroke-width="0.038" stroke-linejoin="round" fill="url(#relief-text2cad-side)" d="M1,0.5L1.84,-0.34L2.09,-0.09L1.25,0.75Z"/><path stroke="#123e59" stroke-width="0.038" stroke-linejoin="round" fill="url(#relief-text2cad-side)" d="M2.5,1.5L3.34,0.66L3.34,1.66L2.5,2.5Z"/><path stroke="#123e59" stroke-width="0.038" stroke-linejoin="round" fill="url(#relief-text2cad-side)" d="M1,0L1.84,-0.84L1.84,-0.34L1,0.5Z"/><path stroke="#123e59" stroke-width="0.038" stroke-linejoin="round" fill="url(#relief-text2cad-top)" d="M1.25,0.75L2.09,-0.09L2.59,-0.09L1.75,0.75Z"/><g clip-path="url(#relief-text2cad-highlight-7)"><path d="M1.25,0.75L2.09,-0.09L2.59,-0.09L1.75,0.75Z" fill="none" stroke="#d1f1ff" stroke-opacity=".6" stroke-width=".037" transform="translate(.042 .042)"/></g><path stroke="#123e59" stroke-width="0.038" stroke-linejoin="round" fill="url(#relief-text2cad-top)" d="M2,0L2.84,-0.84L3.84,-0.84L3,0Z"/><g clip-path="url(#relief-text2cad-highlight-8)"><path d="M2,0L2.84,-0.84L3.84,-0.84L3,0Z" fill="none" stroke="#d1f1ff" stroke-opacity=".6" stroke-width=".037" transform="translate(.042 .042)"/></g><path stroke="#123e59" stroke-width="0.038" stroke-linejoin="round" fill="url(#relief-text2cad-side)" d="M3,0L3.84,-0.84L3.84,0.16L3,1Z"/><path stroke="#123e59" stroke-width="0.038" stroke-linejoin="round" fill="url(#relief-text2cad-front)" fill-rule="evenodd" d="M0,0L1,0L1,0.5L1.25,0.75L1.75,0.75L2,0.5L2,0L3,0L3,1L2.5,1.5L2.5,2.5L3,3L3,4L2,4L2,3.5L1.75,3.25L1.25,3.25L1,3.5L1,4L0,4L0,3L0.5,2.5L0.5,1.5L0,1L0,0Z"/><g clip-path="url(#relief-text2cad-highlight-9)"><path d="M0,0L1,0L1,0.5L1.25,0.75L1.75,0.75L2,0.5L2,0L3,0L3,1L2.5,1.5L2.5,2.5L3,3L3,4L2,4L2,3.5L1.75,3.25L1.25,3.25L1,3.5L1,4L0,4L0,3L0.5,2.5L0.5,1.5L0,1L0,0Z" fill="none" stroke="#d1f1ff" stroke-opacity=".38" stroke-width=".037" transform="translate(.042 .042)"/></g></g><g transform="translate(12.75 0)"><path stroke="#123e59" stroke-width="0.038" stroke-linejoin="round" fill="url(#relief-text2cad-top)" d="M0,0L0.84,-0.84L3.84,-0.84L3,0Z"/><g clip-path="url(#relief-text2cad-highlight-10)"><path d="M0,0L0.84,-0.84L3.84,-0.84L3,0Z" fill="none" stroke="#d1f1ff" stroke-opacity=".6" stroke-width=".037" transform="translate(.042 .042)"/></g><path stroke="#123e59" stroke-width="0.038" stroke-linejoin="round" fill="url(#relief-text2cad-side)" d="M2.25,1.5L3.09,0.66L3.09,3.16L2.25,4Z"/><path stroke="#123e59" stroke-width="0.038" stroke-linejoin="round" fill="url(#relief-text2cad-side)" d="M3,0L3.84,-0.84L3.84,0.66L3,1.5Z"/><path stroke="#123e59" stroke-width="0.038" stroke-linejoin="round" fill="url(#relief-text2cad-front)" fill-rule="evenodd" d="M0,0L0.25,0L0.5,0L0.75,0L1,0L1.25,0L1.5,0L1.75,0L2,0L2.25,0L2.5,0L2.75,0L3,0L3,0.5L3,1L3,1.5L2.75,1.5L2.5,1.5L2.25,1.5L2.25,2L2.25,2.5L2.25,3L2.25,3.5L2.25,4L2,4L1.75,4L1.5,4L1.25,4L1,4L0.75,4L0.75,3.5L0.75,3L0.75,2.5L0.75,2L0.75,1.5L0.5,1.5L0.25,1.5L0,1.5L0,1L0,0.5L0,0Z"/><g clip-path="url(#relief-text2cad-highlight-11)"><path d="M0,0L0.25,0L0.5,0L0.75,0L1,0L1.25,0L1.5,0L1.75,0L2,0L2.25,0L2.5,0L2.75,0L3,0L3,0.5L3,1L3,1.5L2.75,1.5L2.5,1.5L2.25,1.5L2.25,2L2.25,2.5L2.25,3L2.25,3.5L2.25,4L2,4L1.75,4L1.5,4L1.25,4L1,4L0.75,4L0.75,3.5L0.75,3L0.75,2.5L0.75,2L0.75,1.5L0.5,1.5L0.25,1.5L0,1.5L0,1L0,0.5L0,0Z" fill="none" stroke="#d1f1ff" stroke-opacity=".38" stroke-width=".037" transform="translate(.042 .042)"/></g></g><g transform="translate(17 0)"><path stroke="#123e59" stroke-width="0.038" stroke-linejoin="round" fill="url(#relief-text2cad-side)" d="M1.5,2.5L2.34,1.66L2.34,2.16L1.5,3Z"/><path stroke="#123e59" stroke-width="0.038" stroke-linejoin="round" fill="url(#relief-text2cad-top)" d="M1.5,3L2.34,2.16L3.84,2.16L3,3Z"/><g clip-path="url(#relief-text2cad-highlight-12)"><path d="M1.5,3L2.34,2.16L3.84,2.16L3,3Z" fill="none" stroke="#d1f1ff" stroke-opacity=".6" stroke-width=".037" transform="translate(.042 .042)"/></g><path stroke="#123e59" stroke-width="0.038" stroke-linejoin="round" fill="url(#relief-text2cad-top)" d="M0,1.5L0.84,0.66L2.34,0.66L1.5,1.5Z"/><g clip-path="url(#relief-text2cad-highlight-13)"><path d="M0,1.5L0.84,0.66L2.34,0.66L1.5,1.5Z" fill="none" stroke="#d1f1ff" stroke-opacity=".6" stroke-width=".037" transform="translate(.042 .042)"/></g><path stroke="#123e59" stroke-width="0.038" stroke-linejoin="round" fill="url(#relief-text2cad-side)" d="M3,3L3.84,2.16L3.84,3.16L3,4Z"/><path stroke="#123e59" stroke-width="0.038" stroke-linejoin="round" fill="url(#relief-text2cad-top)" d="M0,0L0.84,-0.84L3.34,-0.84L2.5,0Z"/><g clip-path="url(#relief-text2cad-highlight-14)"><path d="M0,0L0.84,-0.84L3.34,-0.84L2.5,0Z" fill="none" stroke="#d1f1ff" stroke-opacity=".6" stroke-width=".037" transform="translate(.042 .042)"/></g><path stroke="#123e59" stroke-width="0.038" stroke-linejoin="round" fill="url(#relief-text2cad-side)" d="M3,0.5L3.84,-0.34L3.84,1.66L3,2.5Z"/><path stroke="#123e59" stroke-width="0.038" stroke-linejoin="round" fill="url(#relief-text2cad-side)" d="M2.5,0L3.34,-0.84L3.84,-0.34L3,0.5Z"/><path stroke="#123e59" stroke-width="0.038" stroke-linejoin="round" fill="url(#relief-text2cad-front)" fill-rule="evenodd" d="M0,0L2.5,0L3,0.5L3,2.5L1.5,2.5L1.5,3L3,3L3,4L0,4L0,1.5L1.5,1.5L1.5,1L0,1L0,0Z"/><g clip-path="url(#relief-text2cad-highlight-15)"><path d="M0,0L2.5,0L3,0.5L3,2.5L1.5,2.5L1.5,3L3,3L3,4L0,4L0,1.5L1.5,1.5L1.5,1L0,1L0,0Z" fill="none" stroke="#d1f1ff" stroke-opacity=".38" stroke-width=".037" transform="translate(.042 .042)"/></g></g><g transform="translate(21.25 0)"><path stroke="#123e59" stroke-width="0.038" stroke-linejoin="round" fill="url(#relief-text2cad-top)" d="M1.5,2.5L2.34,1.66L3.84,1.66L3,2.5Z"/><g clip-path="url(#relief-text2cad-highlight-16)"><path d="M1.5,2.5L2.34,1.66L3.84,1.66L3,2.5Z" fill="none" stroke="#d1f1ff" stroke-opacity=".6" stroke-width=".037" transform="translate(.042 .042)"/></g><path stroke="#123e59" stroke-width="0.038" stroke-linejoin="round" fill="url(#relief-text2cad-top)" d="M0,0L0.84,-0.84L3.84,-0.84L3,0Z"/><g clip-path="url(#relief-text2cad-highlight-17)"><path d="M0,0L0.84,-0.84L3.84,-0.84L3,0Z" fill="none" stroke="#d1f1ff" stroke-opacity=".6" stroke-width=".037" transform="translate(.042 .042)"/></g><path stroke="#123e59" stroke-width="0.038" stroke-linejoin="round" fill="url(#relief-text2cad-side)" d="M1.5,1.5L2.34,0.66L2.34,1.66L1.5,2.5Z"/><path stroke="#123e59" stroke-width="0.038" stroke-linejoin="round" fill="url(#relief-text2cad-side)" d="M3,0L3.84,-0.84L3.84,0.66L3,1.5Z"/><path stroke="#123e59" stroke-width="0.038" stroke-linejoin="round" fill="url(#relief-text2cad-side)" d="M3,2.5L3.84,1.66L3.84,3.16L3,4Z"/><path stroke="#123e59" stroke-width="0.038" stroke-linejoin="round" fill="url(#relief-text2cad-front)" fill-rule="evenodd" d="M0,0L0.5,0L1,0L1.5,0L2,0L2.5,0L3,0L3,0.5L3,1L3,1.5L2.5,1.5L2,1.5L1.5,1.5L1.5,2L1.5,2.5L2,2.5L2.5,2.5L3,2.5L3,3L3,3.5L3,4L2.5,4L2,4L1.5,4L1,4L0.5,4L0,4L0,3.5L0,3L0,2.5L0,2L0,1.5L0,1L0,0.5L0,0Z"/><g clip-path="url(#relief-text2cad-highlight-18)"><path d="M0,0L0.5,0L1,0L1.5,0L2,0L2.5,0L3,0L3,0.5L3,1L3,1.5L2.5,1.5L2,1.5L1.5,1.5L1.5,2L1.5,2.5L2,2.5L2.5,2.5L3,2.5L3,3L3,3.5L3,4L2.5,4L2,4L1.5,4L1,4L0.5,4L0,4L0,3.5L0,3L0,2.5L0,2L0,1.5L0,1L0,0.5L0,0Z" fill="none" stroke="#d1f1ff" stroke-opacity=".38" stroke-width=".037" transform="translate(.042 .042)"/></g></g><g transform="translate(25.5 0)"><path stroke="#123e59" stroke-width="0.038" stroke-linejoin="round" fill="url(#relief-text2cad-side)" d="M1,3.5L1.84,2.66L1.84,3.16L1,4Z"/><path stroke="#123e59" stroke-width="0.038" stroke-linejoin="round" fill="url(#relief-text2cad-side)" d="M1,1L1.84,0.16L1.84,1.16L1,2Z"/><path stroke="#123e59" stroke-width="0.038" stroke-linejoin="round" fill="url(#relief-text2cad-top)" d="M1,2L1.84,1.16L2.84,1.16L2,2Z"/><g clip-path="url(#relief-text2cad-highlight-19)"><path d="M1,2L1.84,1.16L2.84,1.16L2,2Z" fill="none" stroke="#d1f1ff" stroke-opacity=".6" stroke-width=".037" transform="translate(.042 .042)"/></g><path stroke="#123e59" stroke-width="0.038" stroke-linejoin="round" fill="url(#relief-text2cad-side)" d="M3,0.5L3.84,-0.34L3.84,3.16L3,4Z"/><path stroke="#123e59" stroke-width="0.038" stroke-linejoin="round" fill="url(#relief-text2cad-top)" d="M0.5,0L1.34,-0.84L3.34,-0.84L2.5,0Z"/><g clip-path="url(#relief-text2cad-highlight-20)"><path d="M0.5,0L1.34,-0.84L3.34,-0.84L2.5,0Z" fill="none" stroke="#d1f1ff" stroke-opacity=".6" stroke-width=".037" transform="translate(.042 .042)"/></g><path stroke="#123e59" stroke-width="0.038" stroke-linejoin="round" fill="url(#relief-text2cad-side)" d="M2.5,0L3.34,-0.84L3.84,-0.34L3,0.5Z"/><path stroke="#123e59" stroke-width="0.038" stroke-linejoin="round" fill="url(#relief-text2cad-front)" fill-rule="evenodd" d="M0,0.5L0.5,0L2.5,0L3,0.5L3,4L2,4L2,3.5L1,3.5L1,4L0,4L0,0.5ZM1,1L1,2L2,2L2,1L1,1Z"/><g clip-path="url(#relief-text2cad-highlight-21)"><path d="M0,0.5L0.5,0L2.5,0L3,0.5L3,4L2,4L2,3.5L1,3.5L1,4L0,4L0,0.5ZM1,1L1,2L2,2L2,1L1,1Z" fill="none" stroke="#d1f1ff" stroke-opacity=".38" stroke-width=".037" transform="translate(.042 .042)"/></g></g><g transform="translate(29.75 0)"><path stroke="#123e59" stroke-width="0.038" stroke-linejoin="round" fill="url(#relief-text2cad-top)" d="M1,3L1.84,2.16L2.84,2.16L2,3Z"/><g clip-path="url(#relief-text2cad-highlight-22)"><path d="M1,3L1.84,2.16L2.84,2.16L2,3Z" fill="none" stroke="#d1f1ff" stroke-opacity=".6" stroke-width=".037" transform="translate(.042 .042)"/></g><path stroke="#123e59" stroke-width="0.038" stroke-linejoin="round" fill="url(#relief-text2cad-side)" d="M1,1L1.84,0.16L1.84,2.16L1,3Z"/><path stroke="#123e59" stroke-width="0.038" stroke-linejoin="round" fill="url(#relief-text2cad-side)" d="M3,0.5L3.84,-0.34L3.84,2.66L3,3.5Z"/><path stroke="#123e59" stroke-width="0.038" stroke-linejoin="round" fill="url(#relief-text2cad-top)" d="M0,0L0.84,-0.84L3.34,-0.84L2.5,0Z"/><g clip-path="url(#relief-text2cad-highlight-23)"><path d="M0,0L0.84,-0.84L3.34,-0.84L2.5,0Z" fill="none" stroke="#d1f1ff" stroke-opacity=".6" stroke-width=".037" transform="translate(.042 .042)"/></g><path stroke="#123e59" stroke-width="0.038" stroke-linejoin="round" fill="url(#relief-text2cad-side)" d="M2.5,0L3.34,-0.84L3.84,-0.34L3,0.5Z"/><path stroke="#123e59" stroke-width="0.038" stroke-linejoin="round" fill="url(#relief-text2cad-front)" fill-rule="evenodd" d="M0,0L2.5,0L3,0.5L3,3.5L2.5,4L0,4L0,0ZM1,1L1,3L2,3L2,1L1,1Z"/><g clip-path="url(#relief-text2cad-highlight-24)"><path d="M0,0L2.5,0L3,0.5L3,3.5L2.5,4L0,4L0,0ZM1,1L1,3L2,3L2,1L1,1Z" fill="none" stroke="#d1f1ff" stroke-opacity=".38" stroke-width=".037" transform="translate(.042 .042)"/></g></g></g></svg>
