<svg xmlns="http://www.w3.org/2000/svg" viewBox="-0.86 -1.2 5.56 5.56" role="img" aria-label="text-to-cad C logo"><title>text-to-cad</title><defs><radialGradient id="build-c-vignette" cx=".5" cy=".5" r=".5"><stop offset=".6" stop-color="#fff"/><stop offset="1" stop-color="#000"/></radialGradient><mask id="build-c-grid-mask" maskContentUnits="userSpaceOnUse"><rect x="-0.86" y="-1.2" width="5.56" height="5.56" fill="url(#build-c-vignette)"/></mask></defs><g opacity="0" mask="url(#build-c-grid-mask)"><animate attributeName="opacity" dur="3.01s" fill="freeze" keyTimes="0;0.1163;0.8439;0.9934;1" values="0;1;1;0;0" calcMode="spline" keySplines="0 0 1 1;0 0 1 1;0 0 1 1;0 0 1 1"/><path d="M-0.5,-1.2V4.36M0.5,-1.2V4.36M1.5,-1.2V4.36M2.5,-1.2V4.36M3.5,-1.2V4.36M4.5,-1.2V4.36M-0.86,-0.5H4.7M-0.86,0.5H4.7M-0.86,1.5H4.7M-0.86,2.5H4.7M-0.86,3.5H4.7" stroke="#249ddd" stroke-opacity=".12" stroke-width="1" vector-effect="non-scaling-stroke"/><path d="M0,-1.2V4.36M1,-1.2V4.36M2,-1.2V4.36M3,-1.2V4.36M4,-1.2V4.36M-0.86,-1H4.7M-0.86,0H4.7M-0.86,1H4.7M-0.86,2H4.7M-0.86,3H4.7M-0.86,4H4.7" stroke="#249ddd" stroke-opacity=".24" stroke-width="1" vector-effect="non-scaling-stroke"/><line x1="-0.86" y1="0" x2="4.7" y2="0" stroke="#249ddd" stroke-width=".03" stroke-dasharray=".2 .12" stroke-opacity=".7"><animate attributeName="x2" dur="3.01s" fill="freeze" keyTimes="0;0.0166;0.1661;1" values="-0.86;-0.86;4.7;4.7" calcMode="spline" keySplines="0 0 1 1;0.6 0 0.4 1;0 0 1 1"/></line><line x1="-0.86" y1="4" x2="4.7" y2="4" stroke="#249ddd" stroke-width=".03" stroke-dasharray=".2 .12" stroke-opacity=".7"><animate attributeName="x2" dur="3.01s" fill="freeze" keyTimes="0;0.0166;0.1661;1" values="-0.86;-0.86;4.7;4.7" calcMode="spline" keySplines="0 0 1 1;0.6 0 0.4 1;0 0 1 1"/></line></g><defs><filter id="build-c-build-shadow" x="-30%" y="-40%" width="170%" height="200%" color-interpolation-filters="sRGB"><feDropShadow dx=".035" dy=".10" stdDeviation=".075" flood-color="#082f4a" flood-opacity=".22"/></filter><clipPath id="build-c-build-highlight-0"><path d="M0,0L0.84,-0.84L3.84,-0.84L3,0Z" clip-rule="evenodd"><animate attributeName="d" dur="3.01s" fill="freeze" keyTimes="0;0.3322;0.515;1" values="M0,0L0,0L3,0L3,0Z;M0,0L0,0L3,0L3,0Z;M0,0L0.84,-0.84L3.84,-0.84L3,0Z;M0,0L0.84,-0.84L3.84,-0.84L3,0Z" calcMode="spline" keySplines="0 0 1 1;0.5 0 0.25 1;0 0 1 1"/></path></clipPath><clipPath id="build-c-build-highlight-1"><path d="M0,0L3,0L3,4L0,4Z" clip-rule="evenodd"/></clipPath><clipPath id="build-c-build-highlight-2"><path d="M0.84,-0.84L3.84,-0.84L3.84,3.16L0.84,3.16Z" clip-rule="evenodd"><animate attributeName="d" dur="3.01s" fill="freeze" keyTimes="0;0.6445;0.7774;1" values="M0,0L3,0L3,4L0,4Z;M0,0L3,0L3,4L0,4Z;M0.84,-0.84L3.84,-0.84L3.84,3.16L0.84,3.16Z;M0.84,-0.84L3.84,-0.84L3.84,3.16L0.84,3.16Z" calcMode="spline" keySplines="0 0 1 1;0.6 0 0.4 1;0 0 1 1"/></path></clipPath><clipPath id="build-c-build-highlight-3"><path d="M1.5,2.5L2.34,1.66L3.84,1.66L3,2.5Z" clip-rule="evenodd"><animate attributeName="d" dur="3.01s" fill="freeze" keyTimes="0;0.6445;0.7774;1" values="M1.5,2.5L1.5,2.5L3,2.5L3,2.5Z;M1.5,2.5L1.5,2.5L3,2.5L3,2.5Z;M1.5,2.5L2.34,1.66L3.84,1.66L3,2.5Z;M1.5,2.5L2.34,1.66L3.84,1.66L3,2.5Z" calcMode="spline" keySplines="0 0 1 1;0.6 0 0.4 1;0 0 1 1"/></path></clipPath><clipPath id="build-c-build-highlight-4"><path d="M0,0L3,0L3.84,-0.84L0.84,-0.84Z" clip-rule="evenodd"/></clipPath><clipPath id="build-c-build-highlight-5"><path d="M0,0L3,0L3,1.5L1.5,1.5L1.5,2.5L3,2.5L3,4L0,4Z" clip-rule="evenodd"/></clipPath><clipPath id="build-c-build-highlight-6"><path d="M1.5,2.5L2.34,1.66L3.84,1.66L3,2.5Z" clip-rule="evenodd"/></clipPath><clipPath id="build-c-build-highlight-7"><path d="M0,0L0.84,-0.84L3.84,-0.84L3,0Z" clip-rule="evenodd"/></clipPath><clipPath id="build-c-build-highlight-8"><path d="M0,0L3,0L3,1.5L1.5,1.5L1.5,2.5L3,2.5L3,4L0,4Z" clip-rule="evenodd"/></clipPath></defs><g opacity="0" filter="url(#build-c-build-shadow)"><animate attributeName="opacity" dur="3.01s" fill="freeze" keyTimes="0;0.9934;1" values="1;0;0" calcMode="discrete"/><g transform="translate(0 0)"><animate attributeName="opacity" dur="3.01s" fill="freeze" keyTimes="0;0.3322;0.3588;0.515;0.5648;1" values="0;0;0.55;0.55;1;1" calcMode="spline" keySplines="0 0 1 1;0 0 1 1;0 0 1 1;0 0 1 1;0 0 1 1"/><g visibility="hidden"><animate attributeName="visibility" dur="3.01s" fill="freeze" keyTimes="0;0.6445;1" values="visible;hidden;hidden" calcMode="discrete"/><path stroke="#123e59" stroke-width="0.038" stroke-linejoin="round" fill="url(#build-c-side)" d="M3,0L3.84,-0.84L3.84,3.16L3,4Z"><animate attributeName="d" dur="3.01s" fill="freeze" keyTimes="0;0.3322;0.515;1" values="M3,0L3,0L3,4L3,4Z;M3,0L3,0L3,4L3,4Z;M3,0L3.84,-0.84L3.84,3.16L3,4Z;M3,0L3.84,-0.84L3.84,3.16L3,4Z" calcMode="spline" keySplines="0 0 1 1;0.5 0 0.25 1;0 0 1 1"/></path><path stroke="#123e59" stroke-width="0.038" stroke-linejoin="round" fill="url(#build-c-top)" d="M0,0L0.84,-0.84L3.84,-0.84L3,0Z"><animate attributeName="d" dur="3.01s" fill="freeze" keyTimes="0;0.3322;0.515;1" values="M0,0L0,0L3,0L3,0Z;M0,0L0,0L3,0L3,0Z;M0,0L0.84,-0.84L3.84,-0.84L3,0Z;M0,0L0.84,-0.84L3.84,-0.84L3,0Z" calcMode="spline" keySplines="0 0 1 1;0.5 0 0.25 1;0 0 1 1"/></path><g clip-path="url(#build-c-build-highlight-0)"><path d="M0,0L0.84,-0.84L3.84,-0.84L3,0Z" fill="none" stroke="#d1f1ff" stroke-opacity=".6" stroke-width=".037" transform="translate(.042 .042)"><animate attributeName="d" dur="3.01s" fill="freeze" keyTimes="0;0.3322;0.515;1" values="M0,0L0,0L3,0L3,0Z;M0,0L0,0L3,0L3,0Z;M0,0L0.84,-0.84L3.84,-0.84L3,0Z;M0,0L0.84,-0.84L3.84,-0.84L3,0Z" calcMode="spline" keySplines="0 0 1 1;0.5 0 0.25 1;0 0 1 1"/></path></g><path stroke="#123e59" stroke-width="0.038" stroke-linejoin="round" fill="url(#build-c-front)" d="M0,0L3,0L3,4L0,4Z"/><g clip-path="url(#build-c-build-highlight-1)"><path d="M0,0L3,0L3,4L0,4Z" fill="none" stroke="#d1f1ff" stroke-opacity=".38" stroke-width=".037" transform="translate(.042 .042)"/></g></g><g visibility="hidden"><animate attributeName="visibility" dur="3.01s" fill="freeze" keyTimes="0;0.6445;0.7774;1" values="hidden;visible;hidden;hidden" calcMode="discrete"/><path stroke="#123e59" stroke-width="0.038" stroke-linejoin="round" fill="url(#build-c-front)" d="M0.84,-0.84L3.84,-0.84L3.84,3.16L0.84,3.16Z"><animate attributeName="d" dur="3.01s" fill="freeze" keyTimes="0;0.6445;0.7774;1" values="M0,0L3,0L3,4L0,4Z;M0,0L3,0L3,4L0,4Z;M0.84,-0.84L3.84,-0.84L3.84,3.16L0.84,3.16Z;M0.84,-0.84L3.84,-0.84L3.84,3.16L0.84,3.16Z" calcMode="spline" keySplines="0 0 1 1;0.6 0 0.4 1;0 0 1 1"/></path><g clip-path="url(#build-c-build-highlight-2)"><path d="M0.84,-0.84L3.84,-0.84L3.84,3.16L0.84,3.16Z" fill="none" stroke="#d1f1ff" stroke-opacity=".38" stroke-width=".037" transform="translate(.042 .042)"><animate attributeName="d" dur="3.01s" fill="freeze" keyTimes="0;0.6445;0.7774;1" values="M0,0L3,0L3,4L0,4Z;M0,0L3,0L3,4L0,4Z;M0.84,-0.84L3.84,-0.84L3.84,3.16L0.84,3.16Z;M0.84,-0.84L3.84,-0.84L3.84,3.16L0.84,3.16Z" calcMode="spline" keySplines="0 0 1 1;0.6 0 0.4 1;0 0 1 1"/></path></g><path stroke="#123e59" stroke-width="0.038" stroke-linejoin="round" fill="url(#build-c-side)" d="M1.5,1.5L2.34,0.66L2.34,1.66L1.5,2.5Z"><animate attributeName="d" dur="3.01s" fill="freeze" keyTimes="0;0.6445;0.7774;1" values="M1.5,1.5L1.5,1.5L1.5,2.5L1.5,2.5Z;M1.5,1.5L1.5,1.5L1.5,2.5L1.5,2.5Z;M1.5,1.5L2.34,0.66L2.34,1.66L1.5,2.5Z;M1.5,1.5L2.34,0.66L2.34,1.66L1.5,2.5Z" calcMode="spline" keySplines="0 0 1 1;0.6 0 0.4 1;0 0 1 1"/></path><path stroke="#123e59" stroke-width="0.038" stroke-linejoin="round" fill="url(#build-c-top)" d="M1.5,2.5L2.34,1.66L3.84,1.66L3,2.5Z"><animate attributeName="d" dur="3.01s" fill="freeze" keyTimes="0;0.6445;0.7774;1" values="M1.5,2.5L1.5,2.5L3,2.5L3,2.5Z;M1.5,2.5L1.5,2.5L3,2.5L3,2.5Z;M1.5,2.5L2.34,1.66L3.84,1.66L3,2.5Z;M1.5,2.5L2.34,1.66L3.84,1.66L3,2.5Z" calcMode="spline" keySplines="0 0 1 1;0.6 0 0.4 1;0 0 1 1"/></path><g clip-path="url(#build-c-build-highlight-3)"><path d="M1.5,2.5L2.34,1.66L3.84,1.66L3,2.5Z" fill="none" stroke="#d1f1ff" stroke-opacity=".6" stroke-width=".037" transform="translate(.042 .042)"><animate attributeName="d" dur="3.01s" fill="freeze" keyTimes="0;0.6445;0.7774;1" values="M1.5,2.5L1.5,2.5L3,2.5L3,2.5Z;M1.5,2.5L1.5,2.5L3,2.5L3,2.5Z;M1.5,2.5L2.34,1.66L3.84,1.66L3,2.5Z;M1.5,2.5L2.34,1.66L3.84,1.66L3,2.5Z" calcMode="spline" keySplines="0 0 1 1;0.6 0 0.4 1;0 0 1 1"/></path></g><path stroke="#123e59" stroke-width="0.038" stroke-linejoin="round" fill="url(#build-c-side)" d="M3,0L3,1.5L3.84,0.66L3.84,1.66L3,2.5L3,4L3.84,3.16L3.84,-0.84Z"><animate attributeName="d" dur="3.01s" fill="freeze" keyTimes="0;0.6445;0.7774;1" values="M3,0L3,1.5L3,1.5L3,2.5L3,2.5L3,4L3.84,3.16L3.84,-0.84Z;M3,0L3,1.5L3,1.5L3,2.5L3,2.5L3,4L3.84,3.16L3.84,-0.84Z;M3,0L3,1.5L3.84,0.66L3.84,1.66L3,2.5L3,4L3.84,3.16L3.84,-0.84Z;M3,0L3,1.5L3.84,0.66L3.84,1.66L3,2.5L3,4L3.84,3.16L3.84,-0.84Z" calcMode="spline" keySplines="0 0 1 1;0.6 0 0.4 1;0 0 1 1"/></path><path stroke="#123e59" stroke-width="0.038" stroke-linejoin="round" fill="url(#build-c-top)" d="M0,0L3,0L3.84,-0.84L0.84,-0.84Z"/><g clip-path="url(#build-c-build-highlight-4)"><path d="M0,0L3,0L3.84,-0.84L0.84,-0.84Z" fill="none" stroke="#d1f1ff" stroke-opacity=".6" stroke-width=".037" transform="translate(.042 .042)"/></g><path stroke="#123e59" stroke-width="0.038" stroke-linejoin="round" fill="url(#build-c-front)" fill-rule="evenodd" d="M0,0L3,0L3,1.5L1.5,1.5L1.5,2.5L3,2.5L3,4L0,4Z"/><g clip-path="url(#build-c-build-highlight-5)"><path d="M0,0L3,0L3,1.5L1.5,1.5L1.5,2.5L3,2.5L3,4L0,4Z" fill="none" stroke="#d1f1ff" stroke-opacity=".38" stroke-width=".037" transform="translate(.042 .042)"/></g></g><g><animate attributeName="visibility" dur="3.01s" fill="freeze" keyTimes="0;0.7774;1" values="hidden;visible;visible" calcMode="discrete"/><path stroke="#123e59" stroke-width="0.038" stroke-linejoin="round" fill="url(#build-c-top)" d="M1.5,2.5L2.34,1.66L3.84,1.66L3,2.5Z"/><g clip-path="url(#build-c-build-highlight-6)"><path d="M1.5,2.5L2.34,1.66L3.84,1.66L3,2.5Z" fill="none" stroke="#d1f1ff" stroke-opacity=".6" stroke-width=".037" transform="translate(.042 .042)"/></g><path stroke="#123e59" stroke-width="0.038" stroke-linejoin="round" fill="url(#build-c-top)" d="M0,0L0.84,-0.84L3.84,-0.84L3,0Z"/><g clip-path="url(#build-c-build-highlight-7)"><path d="M0,0L0.84,-0.84L3.84,-0.84L3,0Z" fill="none" stroke="#d1f1ff" stroke-opacity=".6" stroke-width=".037" transform="translate(.042 .042)"/></g><path stroke="#123e59" stroke-width="0.038" stroke-linejoin="round" fill="url(#build-c-side)" d="M1.5,1.5L2.34,0.66L2.34,1.66L1.5,2.5Z"/><path stroke="#123e59" stroke-width="0.038" stroke-linejoin="round" fill="url(#build-c-side)" d="M3,0L3.84,-0.84L3.84,0.66L3,1.5Z"/><path stroke="#123e59" stroke-width="0.038" stroke-linejoin="round" fill="url(#build-c-side)" d="M3,2.5L3.84,1.66L3.84,3.16L3,4Z"/><path stroke="#123e59" stroke-width="0.038" stroke-linejoin="round" fill="url(#build-c-front)" fill-rule="evenodd" d="M0,0L3,0L3,1.5L1.5,1.5L1.5,2.5L3,2.5L3,4L0,4Z"/><g clip-path="url(#build-c-build-highlight-8)"><path d="M0,0L3,0L3,1.5L1.5,1.5L1.5,2.5L3,2.5L3,4L0,4Z" fill="none" stroke="#d1f1ff" stroke-opacity=".38" stroke-width=".037" transform="translate(.042 .042)"/></g></g><g opacity="0"><animate attributeName="opacity" dur="3.01s" fill="freeze" keyTimes="0;0.5449;0.5482;0.6611;0.7276;1" values="0;0;1;1;0;0" calcMode="spline" keySplines="0 0 1 1;0 0 1 1;0 0 1 1;0 0 1 1;0 0 1 1"/><path d="M3,1.5L1.5,1.5L1.5,2.5L3,2.5Z" fill="#123e59" fill-opacity="0.2"><animate attributeName="fill-opacity" dur="3.01s" fill="freeze" keyTimes="0;0.6312;0.6977;1" values="0;0;0.2;0.2" calcMode="spline" keySplines="0 0 1 1;0.2 0.7 0.3 1;0 0 1 1"/></path><path d="M3,1.5L1.5,1.5L1.5,2.5L3,2.5Z" fill="none" stroke="#123e59" stroke-width="0.05" stroke-linejoin="round" stroke-dasharray="5.1" stroke-dashoffset="0"><animate attributeName="stroke-dashoffset" dur="3.01s" fill="freeze" keyTimes="0;0.5482;0.6312;1" values="5.1;5.1;0;0" calcMode="spline" keySplines="0 0 1 1;0 0 1 1;0 0 1 1"/></path><circle cx="3" cy="1.5" r="0.065" fill="#ffffff" stroke="#123e59" stroke-width="0.03"><animate attributeName="r" dur="3.01s" fill="freeze" keyTimes="0;0.5482;0.5748;0.608;1" values="0;0;0.1;0.065;0.065" calcMode="spline" keySplines="0 0 1 1;0.3 0 0.2 1;0.6 0 0.4 1;0 0 1 1"/></circle><circle cx="1.5" cy="1.5" r="0.065" fill="#ffffff" stroke="#123e59" stroke-width="0.03"><animate attributeName="r" dur="3.01s" fill="freeze" keyTimes="0;0.5731;0.5997;0.6329;1" values="0;0;0.1;0.065;0.065" calcMode="spline" keySplines="0 0 1 1;0.3 0 0.2 1;0.6 0 0.4 1;0 0 1 1"/></circle><circle cx="1.5" cy="2.5" r="0.065" fill="#ffffff" stroke="#123e59" stroke-width="0.03"><animate attributeName="r" dur="3.01s" fill="freeze" keyTimes="0;0.5897;0.6163;0.6495;1" values="0;0;0.1;0.065;0.065" calcMode="spline" keySplines="0 0 1 1;0.3 0 0.2 1;0.6 0 0.4 1;0 0 1 1"/></circle><circle cx="3" cy="2.5" r="0.065" fill="#ffffff" stroke="#123e59" stroke-width="0.03"><animate attributeName="r" dur="3.01s" fill="freeze" keyTimes="0;0.6146;0.6412;0.6744;1" values="0;0;0.1;0.065;0.065" calcMode="spline" keySplines="0 0 1 1;0.3 0 0.2 1;0.6 0 0.4 1;0 0 1 1"/></circle></g></g></g><g transform="translate(0 0)" opacity="0"><animate attributeName="opacity" dur="3.01s" fill="freeze" keyTimes="0;0.0631;0.0664;0.515;0.5814;1" values="0;0;1;1;0;0" calcMode="spline" keySplines="0 0 1 1;0 0 1 1;0 0 1 1;0 0 1 1;0 0 1 1"/><path d="M0,0L3,0L3,4L0,4Z" fill="#249ddd" fill-opacity="0.22"><animate attributeName="fill-opacity" dur="3.01s" fill="freeze" keyTimes="0;0.299;0.3654;1" values="0;0;0.22;0.22" calcMode="spline" keySplines="0 0 1 1;0.2 0.7 0.3 1;0 0 1 1"/></path><path d="M0,0L3,0L3,4L0,4Z" fill="none" stroke="#249ddd" stroke-width="0.05" stroke-linejoin="round" stroke-dasharray="14.1" stroke-dashoffset="0"><animate attributeName="stroke-dashoffset" dur="3.01s" fill="freeze" keyTimes="0;0.0664;0.299;1" values="14.1;14.1;0;0" calcMode="spline" keySplines="0 0 1 1;0 0 1 1;0 0 1 1"/></path><circle cx="0" cy="0" r="0.065" fill="#ffffff" stroke="#249ddd" stroke-width="0.03"><animate attributeName="r" dur="3.01s" fill="freeze" keyTimes="0;0.0664;0.093;0.1262;1" values="0;0;0.1;0.065;0.065" calcMode="spline" keySplines="0 0 1 1;0.3 0 0.2 1;0.6 0 0.4 1;0 0 1 1"/></circle><circle cx="3" cy="0" r="0.065" fill="#ffffff" stroke="#249ddd" stroke-width="0.03"><animate attributeName="r" dur="3.01s" fill="freeze" keyTimes="0;0.1163;0.1429;0.1761;1" values="0;0;0.1;0.065;0.065" calcMode="spline" keySplines="0 0 1 1;0.3 0 0.2 1;0.6 0 0.4 1;0 0 1 1"/></circle><circle cx="3" cy="4" r="0.065" fill="#ffffff" stroke="#249ddd" stroke-width="0.03"><animate attributeName="r" dur="3.01s" fill="freeze" keyTimes="0;0.1827;0.2093;0.2425;1" values="0;0;0.1;0.065;0.065" calcMode="spline" keySplines="0 0 1 1;0.3 0 0.2 1;0.6 0 0.4 1;0 0 1 1"/></circle><circle cx="0" cy="4" r="0.065" fill="#ffffff" stroke="#249ddd" stroke-width="0.03"><animate attributeName="r" dur="3.01s" fill="freeze" keyTimes="0;0.2326;0.2591;0.2924;1" values="0;0;0.1;0.065;0.065" calcMode="spline" keySplines="0 0 1 1;0.3 0 0.2 1;0.6 0 0.4 1;0 0 1 1"/></circle></g><g><animate attributeName="visibility" dur="3.01s" fill="freeze" keyTimes="0;0.9934;1" values="hidden;visible;visible" calcMode="discrete"/><defs><linearGradient id="build-c-front" gradientUnits="userSpaceOnUse" x1="0" y1="0" x2="2" y2="4"><stop stop-color="#39b0e9"/><stop offset=".5" stop-color="#249ddd"/><stop offset="1" stop-color="#1785bf"/></linearGradient><linearGradient id="build-c-top" gradientUnits="userSpaceOnUse" x1="0" y1="-1" x2="3" y2="4"><stop stop-color="#94d9fa"/><stop offset="1" stop-color="#51ade1"/></linearGradient><linearGradient id="build-c-side" gradientUnits="userSpaceOnUse" x1="0" y1="0" x2="4" y2="3"><stop stop-color="#258cc5"/><stop offset="1" stop-color="#0b5887"/></linearGradient><filter id="build-c-shadow" x="-30%" y="-40%" width="170%" height="200%" color-interpolation-filters="sRGB"><feDropShadow dx=".035" dy=".10" stdDeviation=".075" flood-color="#082f4a" flood-opacity=".22"/></filter><clipPath id="build-c-highlight-0"><path d="M1.5,2.5L2.34,1.66L3.84,1.66L3,2.5Z" clip-rule="evenodd"/></clipPath><clipPath id="build-c-highlight-1"><path d="M0,0L0.84,-0.84L3.84,-0.84L3,0Z" clip-rule="evenodd"/></clipPath><clipPath id="build-c-highlight-2"><path d="M0,0L0.5,0L1,0L1.5,0L2,0L2.5,0L3,0L3,0.5L3,1L3,1.5L2.5,1.5L2,1.5L1.5,1.5L1.5,2L1.5,2.5L2,2.5L2.5,2.5L3,2.5L3,3L3,3.5L3,4L2.5,4L2,4L1.5,4L1,4L0.5,4L0,4L0,3.5L0,3L0,2.5L0,2L0,1.5L0,1L0,0.5L0,0Z" clip-rule="evenodd"/></clipPath></defs><g filter="url(#build-c-shadow)"><g transform="translate(0 0)"><path stroke="#123e59" stroke-width="0.038" stroke-linejoin="round" fill="url(#build-c-top)" d="M1.5,2.5L2.34,1.66L3.84,1.66L3,2.5Z"/><g clip-path="url(#build-c-highlight-0)"><path d="M1.5,2.5L2.34,1.66L3.84,1.66L3,2.5Z" fill="none" stroke="#d1f1ff" stroke-opacity=".6" stroke-width=".037" transform="translate(.042 .042)"/></g><path stroke="#123e59" stroke-width="0.038" stroke-linejoin="round" fill="url(#build-c-top)" d="M0,0L0.84,-0.84L3.84,-0.84L3,0Z"/><g clip-path="url(#build-c-highlight-1)"><path d="M0,0L0.84,-0.84L3.84,-0.84L3,0Z" fill="none" stroke="#d1f1ff" stroke-opacity=".6" stroke-width=".037" transform="translate(.042 .042)"/></g><path stroke="#123e59" stroke-width="0.038" stroke-linejoin="round" fill="url(#build-c-side)" d="M1.5,1.5L2.34,0.66L2.34,1.66L1.5,2.5Z"/><path stroke="#123e59" stroke-width="0.038" stroke-linejoin="round" fill="url(#build-c-side)" d="M3,0L3.84,-0.84L3.84,0.66L3,1.5Z"/><path stroke="#123e59" stroke-width="0.038" stroke-linejoin="round" fill="url(#build-c-side)" d="M3,2.5L3.84,1.66L3.84,3.16L3,4Z"/><path stroke="#123e59" stroke-width="0.038" stroke-linejoin="round" fill="url(#build-c-front)" fill-rule="evenodd" d="M0,0L0.5,0L1,0L1.5,0L2,0L2.5,0L3,0L3,0.5L3,1L3,1.5L2.5,1.5L2,1.5L1.5,1.5L1.5,2L1.5,2.5L2,2.5L2.5,2.5L3,2.5L3,3L3,3.5L3,4L2.5,4L2,4L1.5,4L1,4L0.5,4L0,4L0,3.5L0,3L0,2.5L0,2L0,1.5L0,1L0,0.5L0,0Z"/><g clip-path="url(#build-c-highlight-2)"><path d="M0,0L0.5,0L1,0L1.5,0L2,0L2.5,0L3,0L3,0.5L3,1L3,1.5L2.5,1.5L2,1.5L1.5,1.5L1.5,2L1.5,2.5L2,2.5L2.5,2.5L3,2.5L3,3L3,3.5L3,4L2.5,4L2,4L1.5,4L1,4L0.5,4L0,4L0,3.5L0,3L0,2.5L0,2L0,1.5L0,1L0,0.5L0,0Z" fill="none" stroke="#d1f1ff" stroke-opacity=".38" stroke-width=".037" transform="translate(.042 .042)"/></g></g></g></g></svg>
